# This file uses centimeters as units for non-parametric coordinates.

mtllib Door.mtl
g default
v -0.357715 -9.785280 -9.957393
v -0.120776 -9.785280 -9.957393
v 0.116160 -9.785280 -9.957393
v 0.353098 -9.785280 -9.957393
v -0.357715 -9.403907 -9.957393
v -0.120776 -9.403907 -9.957393
v 0.116160 -9.403907 -9.957393
v 0.353098 -9.403907 -9.957393
v -0.357715 -9.022533 -9.957393
v -0.120776 -9.022533 -9.957393
v 0.116160 -9.022533 -9.957393
v 0.353098 -9.022533 -9.957393
v -0.357715 -8.641159 -9.957393
v -0.120776 -8.641159 -9.957393
v 0.116160 -8.641159 -9.957393
v 0.353098 -8.641159 -9.957393
vt 0.000000 0.000000
vt 0.333333 0.000000
vt 0.666667 0.000000
vt 1.000000 0.000000
vt 0.000000 0.333333
vt 0.333333 0.333333
vt 0.666667 0.333333
vt 1.000000 0.333333
vt 0.000000 0.666667
vt 0.333333 0.666667
vt 0.666667 0.666667
vt 1.000000 0.666667
vt 0.000000 1.000000
vt 0.333333 1.000000
vt 0.666667 1.000000
vt 1.000000 1.000000
vn 0.000000 0.000000 1.000000
vn 0.000000 0.000000 1.000000
vn 0.000000 0.000000 1.000000
vn 0.000000 0.000000 1.000000
vn 0.000000 0.000000 1.000000
vn 0.000000 0.000000 1.000000
vn 0.000000 0.000000 1.000000
vn 0.000000 0.000000 1.000000
vn 0.000000 0.000000 1.000000
vn 0.000000 0.000000 1.000000
vn 0.000000 0.000000 1.000000
vn 0.000000 0.000000 1.000000
vn 0.000000 0.000000 1.000000
vn 0.000000 0.000000 1.000000
vn 0.000000 0.000000 1.000000
vn 0.000000 0.000000 1.000000
s 1
g pasted__Door_Face_1
usemtl initialShadingGroup
f 1/1/1 2/2/2 6/6/3 5/5/4
f 2/2/2 3/3/5 7/7/6 6/6/3
f 3/3/5 4/4/7 8/8/8 7/7/6
f 5/5/4 6/6/3 10/10/9 9/9/10
f 6/6/3 7/7/6 11/11/11 10/10/9
f 7/7/6 8/8/8 12/12/12 11/11/11
f 9/9/10 10/10/9 14/14/13 13/13/14
f 10/10/9 11/11/11 15/15/15 14/14/13
f 11/11/11 12/12/12 16/16/16 15/15/15
g default
v -0.345050 -9.885899 -10.036111
v 0.340887 -9.885899 -10.036111
v -0.412112 -9.784673 -10.036111
v 0.407949 -9.784673 -10.036111
v -0.412112 -8.652068 -10.036111
v 0.407949 -8.652068 -10.036111
v -0.345050 -8.550842 -10.036111
v 0.340887 -8.550842 -10.036111
v -0.345050 -8.734419 -10.036111
v 0.340887 -8.734419 -10.036111
v -0.345050 -9.702322 -10.036111
v 0.340887 -9.702322 -10.036111
v -0.289481 -8.652068 -10.036111
v -0.289481 -9.784673 -10.036111
v 0.285318 -8.652068 -10.036111
v 0.285318 -9.784673 -10.036111
v 0.285318 -8.652068 -9.948559
v 0.340887 -8.734419 -9.948559
v 0.407949 -8.652068 -9.948559
v 0.340887 -8.550842 -9.948559
v -0.412112 -8.652068 -9.948559
v -0.345050 -8.550842 -9.948559
v -0.345050 -8.734419 -9.948559
v -0.289481 -8.652068 -9.948559
v -0.345050 -9.702322 -9.948559
v -0.289481 -9.784673 -9.948559
v -0.412112 -9.784673 -9.948559
v -0.345050 -9.885899 -9.948559
v 0.285318 -9.784673 -9.948559
v 0.340887 -9.702322 -9.948559
v 0.340887 -9.885899 -9.948559
v 0.407949 -9.784673 -9.948559
vt 0.400000 0.200000
vt 0.600000 0.200000
vt 0.200000 0.400000
vt 0.800000 0.400000
vt 0.200000 0.600000
vt 0.800000 0.600000
vt 0.400000 0.800000
vt 0.600000 0.800000
vt 0.400000 0.550000
vt 0.600000 0.550000
vt 0.400000 0.450000
vt 0.600000 0.450000
vt 0.450000 0.600000
vt 0.450000 0.400000
vt 0.550000 0.600000
vt 0.550000 0.400000
vt 0.550000 0.600000
vt 0.600000 0.550000
vt 0.800000 0.600000
vt 0.600000 0.800000
vt 0.400000 0.800000
vt 0.200000 0.600000
vt 0.400000 0.550000
vt 0.450000 0.600000
vt 0.450000 0.400000
vt 0.400000 0.450000
vt 0.200000 0.400000
vt 0.400000 0.200000
vt 0.600000 0.450000
vt 0.550000 0.400000
vt 0.600000 0.200000
vt 0.800000 0.400000
vt 0.550000 0.600000
vt 0.600000 0.550000
vt 0.800000 0.600000
vt 0.600000 0.800000
vt 0.400000 0.800000
vt 0.200000 0.600000
vt 0.400000 0.550000
vt 0.450000 0.600000
vt 0.450000 0.400000
vt 0.400000 0.450000
vt 0.200000 0.400000
vt 0.400000 0.200000
vt 0.600000 0.450000
vt 0.550000 0.400000
vt 0.600000 0.200000
vt 0.800000 0.400000
vn 0.000000 0.000000 1.000000
vn 0.000000 0.000000 1.000000
vn 0.000000 0.000000 1.000000
vn 0.000000 0.000000 1.000000
vn 0.000000 0.000000 1.000000
vn 0.000000 0.000000 1.000000
vn 0.000000 0.000000 1.000000
vn 0.000000 0.000000 1.000000
vn 0.000000 0.000000 1.000000
vn 0.000000 0.000000 1.000000
vn 0.000000 0.000000 1.000000
vn 0.000000 0.000000 1.000000
vn -0.000001 0.000000 1.000000
vn -0.000001 0.000000 1.000000
vn -0.000001 0.000000 1.000000
vn -0.000001 0.000000 1.000000
vn 0.000000 0.000000 1.000000
vn 0.000000 0.000000 1.000000
vn 0.000000 0.000000 1.000000
vn 0.000000 0.000000 1.000000
vn 0.000000 0.000000 1.000000
vn 0.000000 0.000000 1.000000
vn 0.000000 0.000000 1.000000
vn 0.000000 0.000000 1.000000
vn 0.000000 0.000000 1.000000
vn 0.000000 0.000000 1.000000
vn 0.000000 0.000000 1.000000
vn 0.000000 0.000000 1.000000
vn 0.000000 0.000000 1.000000
vn 0.000000 0.000000 1.000000
vn 0.000000 0.000000 1.000000
vn 0.000000 0.000000 1.000000
vn 0.000000 0.000000 -1.000000
vn 0.000000 0.000000 -1.000000
vn 0.000000 0.000000 -1.000000
vn 0.000000 0.000000 -1.000000
vn 0.000000 0.000000 -1.000000
vn 0.000000 0.000000 -1.000000
vn 0.000000 0.000000 -1.000000
vn 0.000000 0.000000 -1.000000
vn 0.000000 0.000000 -1.000000
vn 0.000000 0.000000 -1.000000
vn 0.000000 0.000000 -1.000000
vn 0.000000 0.000000 -1.000000
vn 0.000000 0.000000 -1.000000
vn 0.000000 0.000000 -1.000000
vn 0.000000 0.000000 -1.000000
vn 0.000000 0.000000 -1.000000
vn 0.000000 0.000000 -1.000000
vn 0.000000 0.000000 -1.000000
vn 0.000000 0.000000 -1.000000
vn 0.000000 0.000000 -1.000000
vn 0.000001 0.000000 -1.000000
vn 0.000001 0.000000 -1.000000
vn 0.000001 0.000000 -1.000000
vn 0.000001 0.000000 -1.000000
vn 0.000000 0.000000 -1.000000
vn 0.000000 0.000000 -1.000000
vn 0.000000 0.000000 -1.000000
vn 0.000000 0.000000 -1.000000
vn -0.000001 0.000000 -1.000000
vn -0.000001 0.000000 -1.000000
vn -0.000001 0.000000 -1.000000
vn -0.000001 0.000000 -1.000000
vn -0.828931 -0.559351 0.000000
vn -0.828931 -0.559351 0.000000
vn -0.828931 -0.559351 0.000000
vn -0.828931 -0.559351 0.000000
vn 0.833648 0.552296 0.000000
vn 0.833648 0.552296 0.000000
vn 0.833648 0.552296 0.000000
vn 0.833648 0.552296 0.000000
vn -0.833662 0.552276 0.000000
vn -0.833662 0.552276 0.000000
vn -0.833662 0.552276 0.000000
vn -0.833662 0.552276 0.000000
vn 0.828931 -0.559351 0.000000
vn 0.828931 -0.559351 0.000000
vn 0.828931 -0.559351 0.000000
vn 0.828931 -0.559351 0.000000
vn 0.828930 0.559352 0.000000
vn 0.828930 0.559352 0.000000
vn 0.828930 0.559352 0.000000
vn 0.828930 0.559352 0.000000
vn -0.833662 -0.552276 0.000000
vn -0.833662 -0.552276 0.000000
vn -0.833662 -0.552276 0.000000
vn -0.833662 -0.552276 0.000000
vn -0.828930 0.559352 0.000000
vn -0.828930 0.559352 0.000000
vn -0.828930 0.559352 0.000000
vn -0.828930 0.559352 0.000000
vn 0.833648 -0.552296 0.000000
vn 0.833648 -0.552296 0.000000
vn 0.833648 -0.552296 0.000000
vn 0.833648 -0.552296 0.000000
vn 0.000000 -1.000000 0.000000
vn 0.000000 -1.000000 0.000000
vn 0.000000 -1.000000 0.000000
vn 0.000000 -1.000000 0.000000
vn 0.000000 1.000000 0.000000
vn 0.000000 1.000000 0.000000
vn 0.000000 1.000000 0.000000
vn 0.000000 1.000000 0.000000
vn 1.000000 0.000000 0.000000
vn 1.000000 0.000000 0.000000
vn 1.000000 0.000000 0.000000
vn 1.000000 0.000000 0.000000
vn -1.000000 0.000000 0.000000
vn -1.000000 0.000000 0.000000
vn -1.000000 0.000000 0.000000
vn -1.000000 0.000000 0.000000
vn 0.000000 -1.000000 0.000000
vn 0.000000 -1.000000 0.000000
vn 0.000000 -1.000000 0.000000
vn 0.000000 -1.000000 0.000000
vn 0.000000 1.000000 0.000000
vn 0.000000 1.000000 0.000000
vn 0.000000 1.000000 0.000000
vn 0.000000 1.000000 0.000000
vn 1.000000 0.000000 0.000000
vn 1.000000 0.000000 0.000000
vn 1.000000 0.000000 0.000000
vn 1.000000 0.000000 0.000000
vn -1.000000 0.000000 0.000000
vn -1.000000 0.000000 0.000000
vn -1.000000 0.000000 0.000000
vn -1.000000 0.000000 0.000000
s off
g pasted__Door_Frame_1
usemtl initialShadingGroup
f 33/49/17 34/50/18 35/51/19 36/52/20
f 38/53/21 37/54/22 39/55/23 40/56/24
f 42/57/25 41/58/26 43/59/27 44/60/28
f 46/61/29 45/62/30 47/63/31 48/64/32
f 38/53/33 40/56/34 33/49/35 36/52/36
f 43/59/37 41/58/38 39/55/39 37/54/40
f 44/60/41 47/63/42 45/62/43 42/57/44
f 46/61/45 48/64/46 35/51/47 34/50/48
f 31/33/49 24/36/50 22/35/51 26/34/52
f 23/37/53 29/40/54 25/39/55 21/38/56
f 30/41/57 17/44/58 19/43/59 27/42/60
f 28/45/61 20/48/62 18/47/63 32/46/64
f 23/37/65 24/36/66 31/33/67 29/40/68
f 19/43/69 21/38/70 25/39/71 27/42/72
f 17/44/73 30/41/74 32/46/75 18/47/76
f 28/45/77 26/34/78 22/35/79 20/48/80
f 31/31/81 26/26/82 34/50/83 33/49/84
f 22/22/85 24/24/86 36/52/87 35/51/88
f 23/23/89 21/21/90 37/54/91 38/53/92
f 25/25/93 29/29/94 40/56/95 39/55/96
f 30/30/97 27/27/98 41/58/99 42/57/100
f 19/19/101 17/17/102 44/60/103 43/59/104
f 28/28/105 32/32/106 45/62/107 46/61/108
f 18/18/109 20/20/110 48/64/111 47/63/112
f 29/29/113 31/31/114 33/49/115 40/56/116
f 24/24/117 23/23/118 38/53/119 36/52/120
f 27/27/121 25/25/122 39/55/123 41/58/124
f 21/21/125 19/19/126 43/59/127 37/54/128
f 17/17/129 18/18/130 47/63/131 44/60/132
f 32/32/133 30/30/134 42/57/135 45/62/136
f 20/20/137 22/22/138 35/51/139 48/64/140
f 26/26/141 28/28/142 46/61/143 34/50/144
