# This file uses centimeters as units for non-parametric coordinates.

mtllib Room 5.mtl
g default
v -10.000000 -10.000000 10.000000
v 10.000000 -10.000000 10.000000
v -10.000000 10.000000 10.000000
v -10.000000 10.000000 -10.000000
v 10.000000 10.000000 -10.000000
v -10.000000 -10.000000 -10.000000
v 10.000000 -10.000000 -10.000000
v -13.010244 10.000000 -13.008440
v 10.000000 10.000000 -13.008440
v 10.000000 -13.015815 -13.008440
v -13.010244 -13.015815 -13.008440
v 10.000000 -13.015815 10.000000
v -13.010244 -13.015815 10.000000
v -13.010244 10.000000 10.000000
vt 0.375000 0.000000
vt 0.375000 0.250000
vt 0.375000 0.500000
vt 0.625000 0.500000
vt 0.375000 0.750000
vt 0.625000 0.750000
vt 0.375000 1.000000
vt 0.625000 1.000000
vt 0.125000 0.000000
vt 0.125000 0.250000
vt 0.375000 0.500000
vt 0.625000 0.500000
vt 0.625000 0.750000
vt 0.375000 0.750000
vt 0.625000 1.000000
vt 0.375000 1.000000
vt 0.125000 0.000000
vt 0.375000 0.000000
vt 0.375000 0.250000
vt 0.125000 0.250000
vt 0.375000 0.500000
vt 0.625000 0.500000
vt 0.625000 0.750000
vt 0.625000 1.000000
vt 0.375000 1.000000
vt 0.375000 0.000000
vt 0.375000 0.250000
vt 0.125000 0.250000
vn 0.000000 0.000000 -1.000000
vn 0.000000 0.000000 -1.000000
vn 0.000000 0.000000 -1.000000
vn 0.000000 0.000000 -1.000000
vn 0.000000 -1.000000 0.000000
vn 0.000000 -1.000000 0.000000
vn 0.000000 -1.000000 0.000000
vn 0.000000 -1.000000 0.000000
vn -1.000000 0.000000 0.000000
vn -1.000000 0.000000 0.000000
vn -1.000000 0.000000 0.000000
vn -1.000000 0.000000 0.000000
vn 0.000000 0.000000 1.000000
vn 0.000000 0.000000 1.000000
vn 0.000000 0.000000 1.000000
vn 0.000000 0.000000 1.000000
vn 0.000000 1.000000 0.000000
vn 0.000000 1.000000 0.000000
vn 0.000000 1.000000 0.000000
vn 0.000000 1.000000 0.000000
vn 1.000000 0.000000 0.000000
vn 1.000000 0.000000 0.000000
vn 1.000000 0.000000 0.000000
vn 1.000000 0.000000 0.000000
vn 0.000000 1.000000 0.000000
vn 0.000000 1.000000 0.000000
vn 0.000000 1.000000 0.000000
vn 0.000000 1.000000 0.000000
vn 1.000000 0.000000 0.000000
vn 1.000000 0.000000 0.000000
vn 1.000000 0.000000 0.000000
vn 1.000000 0.000000 0.000000
vn 1.000000 -0.000000 0.000000
vn 1.000000 -0.000000 0.000000
vn 1.000000 -0.000000 0.000000
vn 1.000000 -0.000000 0.000000
vn 0.000000 0.000000 1.000000
vn 0.000000 0.000000 1.000000
vn 0.000000 0.000000 1.000000
vn 0.000000 0.000000 1.000000
vn 0.000000 0.000000 1.000000
vn 0.000000 0.000000 1.000000
vn 0.000000 0.000000 1.000000
vn 0.000000 0.000000 1.000000
vn 0.000000 1.000000 0.000000
vn 0.000000 1.000000 0.000000
vn 0.000000 1.000000 0.000000
vn 0.000000 1.000000 0.000000
s off
g Boundary
usemtl initialShadingGroup
f 8/21/1 9/22/2 10/23/3 11/5/4
f 11/5/5 10/23/6 12/24/7 13/25/8
f 11/9/9 13/26/10 14/27/11 8/28/12
f 4/11/13 6/14/14 7/13/15 5/12/16
f 6/14/17 1/16/18 2/15/19 7/13/20
f 6/17/21 4/20/22 3/19/23 1/18/24
f 4/3/25 5/4/26 9/22/27 8/21/28
f 5/4/29 7/6/30 10/23/31 9/22/32
f 7/6/33 2/8/34 12/24/35 10/23/36
f 2/8/37 1/7/38 13/25/39 12/24/40
f 1/1/41 3/2/42 14/27/43 13/26/44
f 3/2/45 4/10/46 8/28/47 14/27/48
g default
v -0.357715 -9.785280 -9.957393
v -0.120776 -9.785280 -9.957393
v 0.116160 -9.785280 -9.957393
v 0.353098 -9.785280 -9.957393
v -0.357715 -9.403907 -9.957393
v -0.120776 -9.403907 -9.957393
v 0.116160 -9.403907 -9.957393
v 0.353098 -9.403907 -9.957393
v -0.357715 -9.022533 -9.957393
v -0.120776 -9.022533 -9.957393
v 0.116160 -9.022533 -9.957393
v 0.353098 -9.022533 -9.957393
v -0.357715 -8.641159 -9.957393
v -0.120776 -8.641159 -9.957393
v 0.116160 -8.641159 -9.957393
v 0.353098 -8.641159 -9.957393
vt 0.000000 0.000000
vt 0.333333 0.000000
vt 0.666667 0.000000
vt 1.000000 0.000000
vt 0.000000 0.333333
vt 0.333333 0.333333
vt 0.666667 0.333333
vt 1.000000 0.333333
vt 0.000000 0.666667
vt 0.333333 0.666667
vt 0.666667 0.666667
vt 1.000000 0.666667
vt 0.000000 1.000000
vt 0.333333 1.000000
vt 0.666667 1.000000
vt 1.000000 1.000000
vn 0.000000 0.000000 1.000000
vn 0.000000 0.000000 1.000000
vn 0.000000 0.000000 1.000000
vn 0.000000 0.000000 1.000000
vn 0.000000 0.000000 1.000000
vn 0.000000 0.000000 1.000000
vn 0.000000 0.000000 1.000000
vn 0.000000 0.000000 1.000000
vn 0.000000 0.000000 1.000000
vn 0.000000 0.000000 1.000000
vn 0.000000 0.000000 1.000000
vn 0.000000 0.000000 1.000000
vn 0.000000 0.000000 1.000000
vn 0.000000 0.000000 1.000000
vn 0.000000 0.000000 1.000000
vn 0.000000 0.000000 1.000000
s 1
g Door_Face_1
usemtl initialShadingGroup
f 15/29/49 16/30/50 20/34/51 19/33/52
f 16/30/50 17/31/53 21/35/54 20/34/51
f 17/31/53 18/32/55 22/36/56 21/35/54
f 19/33/52 20/34/51 24/38/57 23/37/58
f 20/34/51 21/35/54 25/39/59 24/38/57
f 21/35/54 22/36/56 26/40/60 25/39/59
f 23/37/58 24/38/57 28/42/61 27/41/62
f 24/38/57 25/39/59 29/43/63 28/42/61
f 25/39/59 26/40/60 30/44/64 29/43/63
g default
v -0.345050 -9.885899 -10.036111
v 0.340887 -9.885899 -10.036111
v -0.412112 -9.784673 -10.036111
v 0.407949 -9.784673 -10.036111
v -0.412112 -8.652068 -10.036111
v 0.407949 -8.652068 -10.036111
v -0.345050 -8.550842 -10.036111
v 0.340887 -8.550842 -10.036111
v -0.345050 -8.734419 -10.036111
v 0.340887 -8.734419 -10.036111
v -0.345050 -9.702322 -10.036111
v 0.340887 -9.702322 -10.036111
v -0.289481 -8.652068 -10.036111
v -0.289481 -9.784673 -10.036111
v 0.285318 -8.652068 -10.036111
v 0.285318 -9.784673 -10.036111
v 0.285318 -8.652068 -9.948559
v 0.340887 -8.734419 -9.948559
v 0.407949 -8.652068 -9.948559
v 0.340887 -8.550842 -9.948559
v -0.412112 -8.652068 -9.948559
v -0.345050 -8.550842 -9.948559
v -0.345050 -8.734419 -9.948559
v -0.289481 -8.652068 -9.948559
v -0.345050 -9.702322 -9.948559
v -0.289481 -9.784673 -9.948559
v -0.412112 -9.784673 -9.948559
v -0.345050 -9.885899 -9.948559
v 0.285318 -9.784673 -9.948559
v 0.340887 -9.702322 -9.948559
v 0.340887 -9.885899 -9.948559
v 0.407949 -9.784673 -9.948559
vt 0.400000 0.200000
vt 0.600000 0.200000
vt 0.200000 0.400000
vt 0.800000 0.400000
vt 0.200000 0.600000
vt 0.800000 0.600000
vt 0.400000 0.800000
vt 0.600000 0.800000
vt 0.400000 0.550000
vt 0.600000 0.550000
vt 0.400000 0.450000
vt 0.600000 0.450000
vt 0.450000 0.600000
vt 0.450000 0.400000
vt 0.550000 0.600000
vt 0.550000 0.400000
vt 0.550000 0.600000
vt 0.600000 0.550000
vt 0.800000 0.600000
vt 0.600000 0.800000
vt 0.400000 0.800000
vt 0.200000 0.600000
vt 0.400000 0.550000
vt 0.450000 0.600000
vt 0.450000 0.400000
vt 0.400000 0.450000
vt 0.200000 0.400000
vt 0.400000 0.200000
vt 0.600000 0.450000
vt 0.550000 0.400000
vt 0.600000 0.200000
vt 0.800000 0.400000
vt 0.550000 0.600000
vt 0.600000 0.550000
vt 0.800000 0.600000
vt 0.600000 0.800000
vt 0.400000 0.800000
vt 0.200000 0.600000
vt 0.400000 0.550000
vt 0.450000 0.600000
vt 0.450000 0.400000
vt 0.400000 0.450000
vt 0.200000 0.400000
vt 0.400000 0.200000
vt 0.600000 0.450000
vt 0.550000 0.400000
vt 0.600000 0.200000
vt 0.800000 0.400000
vn 0.000000 0.000000 1.000000
vn 0.000000 0.000000 1.000000
vn 0.000000 0.000000 1.000000
vn 0.000000 0.000000 1.000000
vn 0.000000 0.000000 1.000000
vn 0.000000 0.000000 1.000000
vn 0.000000 0.000000 1.000000
vn 0.000000 0.000000 1.000000
vn 0.000000 0.000000 1.000000
vn 0.000000 0.000000 1.000000
vn 0.000000 0.000000 1.000000
vn 0.000000 0.000000 1.000000
vn -0.000001 0.000000 1.000000
vn -0.000001 0.000000 1.000000
vn -0.000001 0.000000 1.000000
vn -0.000001 0.000000 1.000000
vn 0.000000 0.000000 1.000000
vn 0.000000 0.000000 1.000000
vn 0.000000 0.000000 1.000000
vn 0.000000 0.000000 1.000000
vn 0.000000 0.000000 1.000000
vn 0.000000 0.000000 1.000000
vn 0.000000 0.000000 1.000000
vn 0.000000 0.000000 1.000000
vn 0.000000 0.000000 1.000000
vn 0.000000 0.000000 1.000000
vn 0.000000 0.000000 1.000000
vn 0.000000 0.000000 1.000000
vn 0.000000 0.000000 1.000000
vn 0.000000 0.000000 1.000000
vn 0.000000 0.000000 1.000000
vn 0.000000 0.000000 1.000000
vn 0.000000 0.000000 -1.000000
vn 0.000000 0.000000 -1.000000
vn 0.000000 0.000000 -1.000000
vn 0.000000 0.000000 -1.000000
vn 0.000000 0.000000 -1.000000
vn 0.000000 0.000000 -1.000000
vn 0.000000 0.000000 -1.000000
vn 0.000000 0.000000 -1.000000
vn 0.000000 0.000000 -1.000000
vn 0.000000 0.000000 -1.000000
vn 0.000000 0.000000 -1.000000
vn 0.000000 0.000000 -1.000000
vn 0.000000 0.000000 -1.000000
vn 0.000000 0.000000 -1.000000
vn 0.000000 0.000000 -1.000000
vn 0.000000 0.000000 -1.000000
vn 0.000000 0.000000 -1.000000
vn 0.000000 0.000000 -1.000000
vn 0.000000 0.000000 -1.000000
vn 0.000000 0.000000 -1.000000
vn 0.000001 0.000000 -1.000000
vn 0.000001 0.000000 -1.000000
vn 0.000001 0.000000 -1.000000
vn 0.000001 0.000000 -1.000000
vn 0.000000 0.000000 -1.000000
vn 0.000000 0.000000 -1.000000
vn 0.000000 0.000000 -1.000000
vn 0.000000 0.000000 -1.000000
vn -0.000001 0.000000 -1.000000
vn -0.000001 0.000000 -1.000000
vn -0.000001 0.000000 -1.000000
vn -0.000001 0.000000 -1.000000
vn -0.828931 -0.559351 0.000000
vn -0.828931 -0.559351 0.000000
vn -0.828931 -0.559351 0.000000
vn -0.828931 -0.559351 0.000000
vn 0.833648 0.552296 0.000000
vn 0.833648 0.552296 0.000000
vn 0.833648 0.552296 0.000000
vn 0.833648 0.552296 0.000000
vn -0.833662 0.552276 0.000000
vn -0.833662 0.552276 0.000000
vn -0.833662 0.552276 0.000000
vn -0.833662 0.552276 0.000000
vn 0.828931 -0.559351 0.000000
vn 0.828931 -0.559351 0.000000
vn 0.828931 -0.559351 0.000000
vn 0.828931 -0.559351 0.000000
vn 0.828930 0.559352 0.000000
vn 0.828930 0.559352 0.000000
vn 0.828930 0.559352 0.000000
vn 0.828930 0.559352 0.000000
vn -0.833662 -0.552276 0.000000
vn -0.833662 -0.552276 0.000000
vn -0.833662 -0.552276 0.000000
vn -0.833662 -0.552276 0.000000
vn -0.828930 0.559352 0.000000
vn -0.828930 0.559352 0.000000
vn -0.828930 0.559352 0.000000
vn -0.828930 0.559352 0.000000
vn 0.833648 -0.552296 0.000000
vn 0.833648 -0.552296 0.000000
vn 0.833648 -0.552296 0.000000
vn 0.833648 -0.552296 0.000000
vn 0.000000 -1.000000 0.000000
vn 0.000000 -1.000000 0.000000
vn 0.000000 -1.000000 0.000000
vn 0.000000 -1.000000 0.000000
vn 0.000000 1.000000 0.000000
vn 0.000000 1.000000 0.000000
vn 0.000000 1.000000 0.000000
vn 0.000000 1.000000 0.000000
vn 1.000000 0.000000 0.000000
vn 1.000000 0.000000 0.000000
vn 1.000000 0.000000 0.000000
vn 1.000000 0.000000 0.000000
vn -1.000000 0.000000 0.000000
vn -1.000000 0.000000 0.000000
vn -1.000000 0.000000 0.000000
vn -1.000000 0.000000 0.000000
vn 0.000000 -1.000000 0.000000
vn 0.000000 -1.000000 0.000000
vn 0.000000 -1.000000 0.000000
vn 0.000000 -1.000000 0.000000
vn 0.000000 1.000000 0.000000
vn 0.000000 1.000000 0.000000
vn 0.000000 1.000000 0.000000
vn 0.000000 1.000000 0.000000
vn 1.000000 0.000000 0.000000
vn 1.000000 0.000000 0.000000
vn 1.000000 0.000000 0.000000
vn 1.000000 0.000000 0.000000
vn -1.000000 0.000000 0.000000
vn -1.000000 0.000000 0.000000
vn -1.000000 0.000000 0.000000
vn -1.000000 0.000000 0.000000
s off
g Door_Frame_1
usemtl initialShadingGroup
f 47/77/65 48/78/66 49/79/67 50/80/68
f 52/81/69 51/82/70 53/83/71 54/84/72
f 56/85/73 55/86/74 57/87/75 58/88/76
f 60/89/77 59/90/78 61/91/79 62/92/80
f 52/81/81 54/84/82 47/77/83 50/80/84
f 57/87/85 55/86/86 53/83/87 51/82/88
f 58/88/89 61/91/90 59/90/91 56/85/92
f 60/89/93 62/92/94 49/79/95 48/78/96
f 45/61/97 38/64/98 36/63/99 40/62/100
f 37/65/101 43/68/102 39/67/103 35/66/104
f 44/69/105 31/72/106 33/71/107 41/70/108
f 42/73/109 34/76/110 32/75/111 46/74/112
f 37/65/113 38/64/114 45/61/115 43/68/116
f 33/71/117 35/66/118 39/67/119 41/70/120
f 31/72/121 44/69/122 46/74/123 32/75/124
f 42/73/125 40/62/126 36/63/127 34/76/128
f 45/59/129 40/54/130 48/78/131 47/77/132
f 36/50/133 38/52/134 50/80/135 49/79/136
f 37/51/137 35/49/138 51/82/139 52/81/140
f 39/53/141 43/57/142 54/84/143 53/83/144
f 44/58/145 41/55/146 55/86/147 56/85/148
f 33/47/149 31/45/150 58/88/151 57/87/152
f 42/56/153 46/60/154 59/90/155 60/89/156
f 32/46/157 34/48/158 62/92/159 61/91/160
f 43/57/161 45/59/162 47/77/163 54/84/164
f 38/52/165 37/51/166 52/81/167 50/80/168
f 41/55/169 39/53/170 53/83/171 55/86/172
f 35/49/173 33/47/174 57/87/175 51/82/176
f 31/45/177 32/46/178 61/91/179 58/88/180
f 46/60/181 44/58/182 56/85/183 59/90/184
f 34/48/185 36/50/186 49/79/187 62/92/188
f 40/54/189 42/56/190 60/89/191 48/78/192
g default
v -10.007829 -9.885899 0.341961
v -10.007829 -9.885899 -0.343976
v -10.007829 -9.784673 0.409023
v -10.007829 -9.784673 -0.411038
v -10.007829 -8.652068 0.409023
v -10.007829 -8.652068 -0.411038
v -10.007829 -8.550842 0.341961
v -10.007829 -8.550842 -0.343976
v -10.007829 -8.734419 0.341961
v -10.007829 -8.734419 -0.343976
v -10.007829 -9.702322 0.341961
v -10.007829 -9.702322 -0.343976
v -10.007829 -8.652068 0.286392
v -10.007829 -9.784673 0.286392
v -10.007829 -8.652068 -0.288406
v -10.007829 -9.784673 -0.288406
v -9.920277 -8.652068 -0.288406
v -9.920277 -8.734419 -0.343976
v -9.920277 -8.652068 -0.411038
v -9.920277 -8.550842 -0.343976
v -9.920277 -8.652068 0.409023
v -9.920277 -8.550842 0.341961
v -9.920277 -8.734419 0.341961
v -9.920277 -8.652068 0.286392
v -9.920277 -9.702322 0.341961
v -9.920277 -9.784673 0.286392
v -9.920277 -9.784673 0.409023
v -9.920277 -9.885899 0.341961
v -9.920277 -9.784673 -0.288406
v -9.920277 -9.702322 -0.343976
v -9.920277 -9.885899 -0.343976
v -9.920277 -9.784673 -0.411038
vt 0.400000 0.200000
vt 0.600000 0.200000
vt 0.200000 0.400000
vt 0.800000 0.400000
vt 0.200000 0.600000
vt 0.800000 0.600000
vt 0.400000 0.800000
vt 0.600000 0.800000
vt 0.400000 0.550000
vt 0.600000 0.550000
vt 0.400000 0.450000
vt 0.600000 0.450000
vt 0.450000 0.600000
vt 0.450000 0.400000
vt 0.550000 0.600000
vt 0.550000 0.400000
vt 0.550000 0.600000
vt 0.600000 0.550000
vt 0.800000 0.600000
vt 0.600000 0.800000
vt 0.400000 0.800000
vt 0.200000 0.600000
vt 0.400000 0.550000
vt 0.450000 0.600000
vt 0.450000 0.400000
vt 0.400000 0.450000
vt 0.200000 0.400000
vt 0.400000 0.200000
vt 0.600000 0.450000
vt 0.550000 0.400000
vt 0.600000 0.200000
vt 0.800000 0.400000
vt 0.550000 0.600000
vt 0.600000 0.550000
vt 0.800000 0.600000
vt 0.600000 0.800000
vt 0.400000 0.800000
vt 0.200000 0.600000
vt 0.400000 0.550000
vt 0.450000 0.600000
vt 0.450000 0.400000
vt 0.400000 0.450000
vt 0.200000 0.400000
vt 0.400000 0.200000
vt 0.600000 0.450000
vt 0.550000 0.400000
vt 0.600000 0.200000
vt 0.800000 0.400000
vn 1.000000 0.000000 0.000000
vn 1.000000 0.000000 0.000000
vn 1.000000 0.000000 0.000000
vn 1.000000 0.000000 0.000000
vn 1.000000 0.000000 0.000000
vn 1.000000 0.000000 0.000000
vn 1.000000 0.000000 0.000000
vn 1.000000 0.000000 0.000000
vn 1.000000 0.000000 0.000000
vn 1.000000 0.000000 0.000000
vn 1.000000 0.000000 0.000000
vn 1.000000 0.000000 0.000000
vn 1.000000 0.000000 0.000001
vn 1.000000 0.000000 0.000001
vn 1.000000 0.000000 0.000001
vn 1.000000 0.000000 0.000001
vn 1.000000 0.000000 0.000000
vn 1.000000 0.000000 0.000000
vn 1.000000 0.000000 0.000000
vn 1.000000 0.000000 0.000000
vn 1.000000 0.000000 0.000000
vn 1.000000 0.000000 0.000000
vn 1.000000 0.000000 0.000000
vn 1.000000 0.000000 0.000000
vn 1.000000 0.000000 0.000000
vn 1.000000 0.000000 0.000000
vn 1.000000 0.000000 0.000000
vn 1.000000 0.000000 0.000000
vn 1.000000 0.000000 0.000000
vn 1.000000 0.000000 0.000000
vn 1.000000 0.000000 0.000000
vn 1.000000 0.000000 0.000000
vn -1.000000 0.000000 -0.000000
vn -1.000000 0.000000 -0.000000
vn -1.000000 0.000000 -0.000000
vn -1.000000 0.000000 -0.000000
vn -1.000000 0.000000 -0.000000
vn -1.000000 0.000000 -0.000000
vn -1.000000 0.000000 -0.000000
vn -1.000000 0.000000 -0.000000
vn -1.000000 0.000000 -0.000000
vn -1.000000 0.000000 -0.000000
vn -1.000000 0.000000 -0.000000
vn -1.000000 0.000000 -0.000000
vn -1.000000 0.000000 -0.000000
vn -1.000000 0.000000 -0.000000
vn -1.000000 0.000000 -0.000000
vn -1.000000 0.000000 -0.000000
vn -1.000000 0.000000 -0.000000
vn -1.000000 0.000000 -0.000000
vn -1.000000 0.000000 -0.000000
vn -1.000000 0.000000 -0.000000
vn -1.000000 0.000000 -0.000001
vn -1.000000 0.000000 -0.000001
vn -1.000000 0.000000 -0.000001
vn -1.000000 0.000000 -0.000001
vn -1.000000 0.000000 -0.000000
vn -1.000000 0.000000 -0.000000
vn -1.000000 0.000000 -0.000000
vn -1.000000 0.000000 -0.000000
vn -1.000000 0.000000 0.000001
vn -1.000000 0.000000 0.000001
vn -1.000000 0.000000 0.000001
vn -1.000000 0.000000 0.000001
vn -0.000000 -0.559351 0.828931
vn -0.000000 -0.559351 0.828931
vn -0.000000 -0.559351 0.828931
vn -0.000000 -0.559351 0.828931
vn 0.000000 0.552296 -0.833648
vn 0.000000 0.552296 -0.833648
vn 0.000000 0.552296 -0.833648
vn 0.000000 0.552296 -0.833648
vn -0.000000 0.552276 0.833662
vn -0.000000 0.552276 0.833662
vn -0.000000 0.552276 0.833662
vn -0.000000 0.552276 0.833662
vn 0.000000 -0.559351 -0.828931
vn 0.000000 -0.559351 -0.828931
vn 0.000000 -0.559351 -0.828931
vn 0.000000 -0.559351 -0.828931
vn 0.000000 0.559352 -0.828930
vn 0.000000 0.559352 -0.828930
vn 0.000000 0.559352 -0.828930
vn 0.000000 0.559352 -0.828930
vn -0.000000 -0.552276 0.833662
vn -0.000000 -0.552276 0.833662
vn -0.000000 -0.552276 0.833662
vn -0.000000 -0.552276 0.833662
vn -0.000000 0.559352 0.828930
vn -0.000000 0.559352 0.828930
vn -0.000000 0.559352 0.828930
vn -0.000000 0.559352 0.828930
vn 0.000000 -0.552296 -0.833648
vn 0.000000 -0.552296 -0.833648
vn 0.000000 -0.552296 -0.833648
vn 0.000000 -0.552296 -0.833648
vn 0.000000 -1.000000 0.000000
vn 0.000000 -1.000000 0.000000
vn 0.000000 -1.000000 0.000000
vn 0.000000 -1.000000 0.000000
vn 0.000000 1.000000 0.000000
vn 0.000000 1.000000 0.000000
vn 0.000000 1.000000 0.000000
vn 0.000000 1.000000 0.000000
vn 0.000000 0.000000 -1.000000
vn 0.000000 0.000000 -1.000000
vn 0.000000 0.000000 -1.000000
vn 0.000000 0.000000 -1.000000
vn -0.000000 0.000000 1.000000
vn -0.000000 0.000000 1.000000
vn -0.000000 0.000000 1.000000
vn -0.000000 0.000000 1.000000
vn 0.000000 -1.000000 0.000000
vn 0.000000 -1.000000 0.000000
vn 0.000000 -1.000000 0.000000
vn 0.000000 -1.000000 0.000000
vn 0.000000 1.000000 0.000000
vn 0.000000 1.000000 0.000000
vn 0.000000 1.000000 0.000000
vn 0.000000 1.000000 0.000000
vn 0.000000 0.000000 -1.000000
vn 0.000000 0.000000 -1.000000
vn 0.000000 0.000000 -1.000000
vn 0.000000 0.000000 -1.000000
vn -0.000000 0.000000 1.000000
vn -0.000000 0.000000 1.000000
vn -0.000000 0.000000 1.000000
vn -0.000000 0.000000 1.000000
s off
g Door_Frame_2
usemtl initialShadingGroup
f 79/125/193 80/126/194 81/127/195 82/128/196
f 84/129/197 83/130/198 85/131/199 86/132/200
f 88/133/201 87/134/202 89/135/203 90/136/204
f 92/137/205 91/138/206 93/139/207 94/140/208
f 84/129/209 86/132/210 79/125/211 82/128/212
f 89/135/213 87/134/214 85/131/215 83/130/216
f 90/136/217 93/139/218 91/138/219 88/133/220
f 92/137/221 94/140/222 81/127/223 80/126/224
f 77/109/225 70/112/226 68/111/227 72/110/228
f 69/113/229 75/116/230 71/115/231 67/114/232
f 76/117/233 63/120/234 65/119/235 73/118/236
f 74/121/237 66/124/238 64/123/239 78/122/240
f 69/113/241 70/112/242 77/109/243 75/116/244
f 65/119/245 67/114/246 71/115/247 73/118/248
f 63/120/249 76/117/250 78/122/251 64/123/252
f 74/121/253 72/110/254 68/111/255 66/124/256
f 77/107/257 72/102/258 80/126/259 79/125/260
f 68/98/261 70/100/262 82/128/263 81/127/264
f 69/99/265 67/97/266 83/130/267 84/129/268
f 71/101/269 75/105/270 86/132/271 85/131/272
f 76/106/273 73/103/274 87/134/275 88/133/276
f 65/95/277 63/93/278 90/136/279 89/135/280
f 74/104/281 78/108/282 91/138/283 92/137/284
f 64/94/285 66/96/286 94/140/287 93/139/288
f 75/105/289 77/107/290 79/125/291 86/132/292
f 70/100/293 69/99/294 84/129/295 82/128/296
f 73/103/297 71/101/298 85/131/299 87/134/300
f 67/97/301 65/95/302 89/135/303 83/130/304
f 63/93/305 64/94/306 93/139/307 90/136/308
f 78/108/309 76/106/310 88/133/311 91/138/312
f 66/96/313 68/98/314 81/127/315 94/140/316
f 72/102/317 74/104/318 92/137/319 80/126/320
g default
v -9.929111 -9.785280 0.354626
v -9.929111 -9.785280 0.117688
v -9.929111 -9.785280 -0.119248
v -9.929111 -9.785280 -0.356187
v -9.929111 -9.403907 0.354626
v -9.929111 -9.403907 0.117688
v -9.929111 -9.403907 -0.119248
v -9.929111 -9.403907 -0.356187
v -9.929111 -9.022533 0.354626
v -9.929111 -9.022533 0.117688
v -9.929111 -9.022533 -0.119248
v -9.929111 -9.022533 -0.356187
v -9.929111 -8.641159 0.354626
v -9.929111 -8.641159 0.117688
v -9.929111 -8.641159 -0.119248
v -9.929111 -8.641159 -0.356187
vt 0.000000 0.000000
vt 0.333333 0.000000
vt 0.666667 0.000000
vt 1.000000 0.000000
vt 0.000000 0.333333
vt 0.333333 0.333333
vt 0.666667 0.333333
vt 1.000000 0.333333
vt 0.000000 0.666667
vt 0.333333 0.666667
vt 0.666667 0.666667
vt 1.000000 0.666667
vt 0.000000 1.000000
vt 0.333333 1.000000
vt 0.666667 1.000000
vt 1.000000 1.000000
vn 1.000000 0.000000 0.000000
vn 1.000000 0.000000 0.000000
vn 1.000000 0.000000 0.000000
vn 1.000000 0.000000 0.000000
vn 1.000000 0.000000 0.000000
vn 1.000000 0.000000 0.000000
vn 1.000000 0.000000 0.000000
vn 1.000000 0.000000 0.000000
vn 1.000000 0.000000 0.000000
vn 1.000000 0.000000 0.000000
vn 1.000000 0.000000 0.000000
vn 1.000000 0.000000 0.000000
vn 1.000000 0.000000 0.000000
vn 1.000000 0.000000 0.000000
vn 1.000000 0.000000 0.000000
vn 1.000000 0.000000 0.000000
s 1
g Door_Face_2
usemtl initialShadingGroup
f 95/141/321 96/142/322 100/146/323 99/145/324
f 96/142/322 97/143/325 101/147/326 100/146/323
f 97/143/325 98/144/327 102/148/328 101/147/326
f 99/145/324 100/146/323 104/150/329 103/149/330
f 100/146/323 101/147/326 105/151/331 104/150/329
f 101/147/326 102/148/328 106/152/332 105/151/331
f 103/149/330 104/150/329 108/154/333 107/153/334
f 104/150/329 105/151/331 109/155/335 108/154/333
f 105/151/331 106/152/332 110/156/336 109/155/335
g default
v -10.675479 -8.587980 -8.211781
v -10.358594 -8.587980 -7.894897
v -10.675479 -5.112823 -8.211781
v -10.358594 -5.112823 -7.894897
v -8.218171 -5.112823 -10.669089
v -7.901287 -5.112823 -10.352205
v -8.218171 -8.587980 -10.669089
v -7.901287 -8.587980 -10.352205
vt 0.375000 0.000000
vt 0.625000 0.000000
vt 0.375000 0.250000
vt 0.625000 0.250000
vt 0.375000 0.500000
vt 0.625000 0.500000
vt 0.375000 0.750000
vt 0.625000 0.750000
vt 0.375000 1.000000
vt 0.625000 1.000000
vt 0.875000 0.000000
vt 0.875000 0.250000
vt 0.125000 0.000000
vt 0.125000 0.250000
vn -0.707107 0.000000 0.707107
vn -0.707107 0.000000 0.707107
vn -0.707107 0.000000 0.707107
vn -0.707107 0.000000 0.707107
vn 0.000000 1.000000 0.000000
vn 0.000000 1.000000 0.000000
vn 0.000000 1.000000 0.000000
vn 0.000000 1.000000 0.000000
vn 0.707107 0.000000 -0.707107
vn 0.707107 0.000000 -0.707107
vn 0.707107 0.000000 -0.707107
vn 0.707107 0.000000 -0.707107
vn 0.000000 -1.000000 0.000000
vn 0.000000 -1.000000 0.000000
vn 0.000000 -1.000000 0.000000
vn 0.000000 -1.000000 0.000000
vn 0.707107 0.000000 0.707107
vn 0.707107 0.000000 0.707107
vn 0.707107 0.000000 0.707107
vn 0.707107 0.000000 0.707107
vn -0.707107 0.000000 -0.707107
vn -0.707107 0.000000 -0.707107
vn -0.707107 0.000000 -0.707107
vn -0.707107 0.000000 -0.707107
s off
g pCube1
usemtl initialShadingGroup
f 111/157/337 112/158/338 114/160/339 113/159/340
f 113/159/341 114/160/342 116/162/343 115/161/344
f 115/161/345 116/162/346 118/164/347 117/163/348
f 117/163/349 118/164/350 112/166/351 111/165/352
f 112/158/353 118/167/354 116/168/355 114/160/356
f 117/169/357 111/157/358 113/159/359 115/170/360
